# xmcd CD database file
#
# Track frame offsets:
#	150
#	64787
#	109372
#	180010
#	220212
#	232335
#
# Disc length: 3212 seconds
#
# Revision: 4
# Processed by: cddbd v1.5.2PL0 Copyright (c) Steve Scherf et al.
# Submitted via: CDex 1.70beta2
#
DISCID=520c8a06
DTITLE=Miles Davis - In Person, Friday Night at the Blackhawk, San Francisco, Vol. 1
DYEAR=1961
DGENRE=Jazz
TTITLE0=Walkin'
TTITLE1=Bye bye blackbird
TTITLE2=All of you
TTITLE3=No blues
TTITLE4=Bye bye (theme)
TTITLE5=Love, I've found you
EXTD=Miles Davis, Hank Mobley, Wynton Kelly, Paul Chambers, Jimmy Cobb.  Friday Night, April 21, 1961, San Francisco. YEAR: 1961
EXTT0=
EXTT1=
EXTT2=
EXTT3=
EXTT4=
EXTT5=
PLAYORDER=
